<mxfile host="app.diagrams.net" modified="2023-10-25T06:38:52.371Z" agent="Mozilla/5.0 (Windows NT 10.0; Win64; x64) AppleWebKit/537.36 (KHTML, like Gecko) Chrome/118.0.0.0 Safari/537.36" etag="4_dSORiixAbQ4s9FHTcm" version="22.0.7" type="github">
  <diagram id="C5RBs43oDa-KdzZeNtuy" name="Page-1">
    <mxGraphModel dx="880" dy="456" grid="1" gridSize="10" guides="1" tooltips="1" connect="1" arrows="1" fold="1" page="1" pageScale="1" pageWidth="827" pageHeight="1169" math="0" shadow="0">
      <root>
        <mxCell id="WIyWlLk6GJQsqaUBKTNV-0" />
        <mxCell id="WIyWlLk6GJQsqaUBKTNV-1" parent="WIyWlLk6GJQsqaUBKTNV-0" />
        <mxCell id="FDtUW_5cBE8HfVy0_CIG-3" value="" style="edgeStyle=orthogonalEdgeStyle;rounded=0;orthogonalLoop=1;jettySize=auto;html=1;" edge="1" parent="WIyWlLk6GJQsqaUBKTNV-1" source="FDtUW_5cBE8HfVy0_CIG-0" target="FDtUW_5cBE8HfVy0_CIG-2">
          <mxGeometry relative="1" as="geometry" />
        </mxCell>
        <mxCell id="FDtUW_5cBE8HfVy0_CIG-0" value="STAR" style="ellipse;whiteSpace=wrap;html=1;" vertex="1" parent="WIyWlLk6GJQsqaUBKTNV-1">
          <mxGeometry x="210" y="40" width="260" height="80" as="geometry" />
        </mxCell>
        <mxCell id="FDtUW_5cBE8HfVy0_CIG-5" value="" style="edgeStyle=orthogonalEdgeStyle;rounded=0;orthogonalLoop=1;jettySize=auto;html=1;" edge="1" parent="WIyWlLk6GJQsqaUBKTNV-1" source="FDtUW_5cBE8HfVy0_CIG-2" target="FDtUW_5cBE8HfVy0_CIG-4">
          <mxGeometry relative="1" as="geometry" />
        </mxCell>
        <mxCell id="FDtUW_5cBE8HfVy0_CIG-2" value="Ph: 3,14" style="shape=hexagon;perimeter=hexagonPerimeter2;whiteSpace=wrap;html=1;fixedSize=1;" vertex="1" parent="WIyWlLk6GJQsqaUBKTNV-1">
          <mxGeometry x="195" y="170" width="290" height="80" as="geometry" />
        </mxCell>
        <mxCell id="FDtUW_5cBE8HfVy0_CIG-7" style="edgeStyle=orthogonalEdgeStyle;rounded=0;orthogonalLoop=1;jettySize=auto;html=1;exitX=0.5;exitY=1;exitDx=0;exitDy=0;" edge="1" parent="WIyWlLk6GJQsqaUBKTNV-1" source="FDtUW_5cBE8HfVy0_CIG-4">
          <mxGeometry relative="1" as="geometry">
            <mxPoint x="340" y="500" as="targetPoint" />
          </mxGeometry>
        </mxCell>
        <mxCell id="FDtUW_5cBE8HfVy0_CIG-4" value="INPUT&amp;nbsp; r" style="shape=parallelogram;perimeter=parallelogramPerimeter;whiteSpace=wrap;html=1;fixedSize=1;" vertex="1" parent="WIyWlLk6GJQsqaUBKTNV-1">
          <mxGeometry x="195" y="350" width="290" height="60" as="geometry" />
        </mxCell>
        <mxCell id="FDtUW_5cBE8HfVy0_CIG-9" value="" style="edgeStyle=orthogonalEdgeStyle;rounded=0;orthogonalLoop=1;jettySize=auto;html=1;" edge="1" parent="WIyWlLk6GJQsqaUBKTNV-1" source="FDtUW_5cBE8HfVy0_CIG-6" target="FDtUW_5cBE8HfVy0_CIG-8">
          <mxGeometry relative="1" as="geometry" />
        </mxCell>
        <mxCell id="FDtUW_5cBE8HfVy0_CIG-6" value="L = pi*r*r" style="rounded=0;whiteSpace=wrap;html=1;" vertex="1" parent="WIyWlLk6GJQsqaUBKTNV-1">
          <mxGeometry x="190" y="510" width="300" height="60" as="geometry" />
        </mxCell>
        <mxCell id="FDtUW_5cBE8HfVy0_CIG-12" value="" style="edgeStyle=orthogonalEdgeStyle;rounded=0;orthogonalLoop=1;jettySize=auto;html=1;" edge="1" parent="WIyWlLk6GJQsqaUBKTNV-1" source="FDtUW_5cBE8HfVy0_CIG-8" target="FDtUW_5cBE8HfVy0_CIG-11">
          <mxGeometry relative="1" as="geometry" />
        </mxCell>
        <mxCell id="FDtUW_5cBE8HfVy0_CIG-8" value="Ceta Luas&amp;nbsp;" style="shape=parallelogram;perimeter=parallelogramPerimeter;whiteSpace=wrap;html=1;fixedSize=1;rounded=0;" vertex="1" parent="WIyWlLk6GJQsqaUBKTNV-1">
          <mxGeometry x="215" y="660" width="250" height="60" as="geometry" />
        </mxCell>
        <mxCell id="FDtUW_5cBE8HfVy0_CIG-11" value="STOP" style="ellipse;whiteSpace=wrap;html=1;rounded=0;" vertex="1" parent="WIyWlLk6GJQsqaUBKTNV-1">
          <mxGeometry x="250" y="800" width="180" height="80" as="geometry" />
        </mxCell>
      </root>
    </mxGraphModel>
  </diagram>
</mxfile>
